#!OML:ASF F:\VICON\USERDATA\INSTALL\rory3\rory3.ASF
:FULLY-SPECIFIED
:DEGREES
221
root -8.18754 17.6363 1.60265 -7.90821 -47.7132 3.78777
lowerback 13.6414 2.09358 2.02205
upperback 1.57533 3.06347 0.375854
thorax -5.89295 1.44282 -1.30622
lowerneck -15.9456 3.12177 -9.55893
upperneck 40.1686 6.6177 2.39673
head 16.8824 1.35706 3.91038
rclavicle 2.17172e-014 -3.97569e-015
rhumerus -40.2093 -13.3222 -75.8184
rradius 33.3471
rwrist 5.63713
rhand -14.6723 11.5641
rfingers 7.12502
rthumb 11.4808 -18.1015
lclavicle 2.17172e-014 -3.97569e-015
lhumerus -33.2937 13.2021 77.8057
lradius 42.2933
lwrist -2.54583
lhand -21.5393 26.1246
lfingers 7.12502
lthumb 4.85361 56.049
rfemur -8.50904 -0.720235 20.3113
rtibia 36.9673
rfoot -18.4224 -5.72453
rtoes 1.10163
lfemur -16.6548 1.10477 -19.1101
ltibia 43.3504
lfoot 2.16796 -28.8862
ltoes -14.9351
222
root -8.17597 17.6466 1.62788 -8.0401 -47.5045 3.95575
lowerback 13.5982 2.22558 1.97298
upperback 1.70402 3.22263 0.322448
thorax -5.72682 1.52443 -1.35778
lowerneck -16.604 3.18892 -9.1954
upperneck 40.6779 6.81551 2.17867
head 17.3482 1.4162 3.83823
rclavicle -4.36829e-014 -7.95139e-016
rhumerus -39.8607 -13.5551 -75.5582
rradius 32.9094
rwrist 5.95615
rhand -14.4142 11.6508
rfingers 7.12502
rthumb 11.7297 -18.0007
lclavicle -4.36829e-014 -7.95139e-016
lhumerus -33.3441 13.8149 77.8311
lradius 42.0557
lwrist -2.55479
lhand -21.7221 25.8011
lfingers 7.12502
lthumb 4.67715 55.7295
rfemur -8.30811 -0.938373 20.0592
rtibia 36.6836
rfoot -18.4205 -5.73714
rtoes 1.57588
lfemur -16.7562 1.27619 -18.9122
ltibia 43.1659
lfoot 2.34819 -29.3895
ltoes -13.3274
223
root -8.16413 17.6577 1.655 -8.01794 -47.3045 3.95551
lowerback 13.5417 2.34843 2.02025
upperback 1.77026 3.38827 0.308914
thorax -5.6162 1.60666 -1.42324
lowerneck -16.6061 3.11156 -9.47561
upperneck 40.5047 6.6649 2.51212
head 17.2277 1.37974 4.00398
rclavicle 7.05686e-015 1.35174e-014
rhumerus -39.6548 -13.8253 -75.2271
rradius 32.543
rwrist 6.14789
rhand -14.3568 11.7133
rfingers 7.12502
rthumb 11.7851 -17.9351
lclavicle 7.05686e-015 1.35174e-014
lhumerus -33.5264 14.2836 77.8448
lradius 41.7299
lwrist -2.61096
lhand -21.9772 25.3886
lfingers 7.12502
lthumb 4.43075 55.3222
rfemur -8.11026 -1.01918 19.946
rtibia 36.3545
rfoot -18.3083 -5.87741
rtoes 1.57065
lfemur -16.8563 1.35573 -18.5701
ltibia 42.9342
lfoot 1.95818 -29.3307
ltoes -10.4842
224
root -8.15275 17.672 1.67983 -7.84375 -47.0621 3.75062
lowerback 13.5034 2.40016 2.11262
upperback 1.80209 3.47006 0.334124
thorax -5.55456 1.64632 -1.46009
lowerneck -16.642 3.12914 -9.43622
upperneck 40.5663 6.68565 2.53114
head 17.2694 1.3946 4.01497
rclavicle 9.90942e-014 -2.3059e-014
rhumerus -39.4697 -14.0671 -74.9479
rradius 32.2028
rwrist 6.49153
rhand -14.3221 11.5664
rfingers 7.12502
rthumb 11.8185 -18.0801
lclavicle 9.90942e-014 -2.3059e-014
lhumerus -33.7936 14.8011 77.7339
lradius 41.4181
lwrist -2.49036
lhand -21.9572 25.6075
lfingers 7.12502
lthumb 4.4501 55.5407
rfemur -7.87185 -0.99226 20.0054
rtibia 35.9884
rfoot -18.1421 -6.11466
rtoes 1.48376
lfemur -16.943 1.33988 -18.0598
ltibia 42.6745
lfoot -0.506725 -28.4674
ltoes -12.5419
225
root -8.14021 17.6867 1.70043 -7.61482 -46.8382 3.5023
lowerback 13.531 2.43572 2.15303
upperback 1.78387 3.52804 0.394706
thorax -5.58842 1.67379 -1.43135
lowerneck -16.2565 3.16193 -9.73145
upperneck 40.2476 6.67101 2.78885
head 16.9628 1.41551 4.1457
rclavicle -2.01269e-014 1.35174e-014
rhumerus -39.2578 -14.3024 -74.663
rradius 31.8806
rwrist 7.00243
rhand -14.3132 10.8368
rfingers 7.12502
rthumb 11.8271 -18.8092
lclavicle -2.01269e-014 1.35174e-014
lhumerus -34.1923 15.3522 77.5817
lradius 41.264
lwrist -2.3857
lhand -21.755 26.1435
lfingers 7.12502
lthumb 4.64537 56.0726
rfemur -7.64975 -0.94539 20.1083
rtibia 35.5617
rfoot -17.9629 -6.31996
rtoes 1.77366
lfemur -17.0235 1.34262 -17.4927
ltibia 42.3635
lfoot -4.63634 -26.3488
ltoes -19.998
226
root -8.12852 17.7076 1.72269 -7.50269 -46.6667 3.32962
lowerback 13.677 2.51526 2.1096
upperback 1.71879 3.63739 0.472695
thorax -5.74198 1.72591 -1.35416
lowerneck -16.8786 3.2953 -9.02766
upperneck 40.8883 6.91068 2.40285
head 17.5172 1.50702 3.95438
rclavicle -3.80673e-014 4.77083e-015
rhumerus -39.1443 -14.6636 -74.2108
rradius 31.4417
rwrist 7.48142
rhand -14.3443 10.4016
rfingers 7.12502
rthumb 11.7971 -19.2461
lclavicle -3.80673e-014 4.77083e-015
lhumerus -34.7182 15.8144 77.4168
lradius 41.1193
lwrist -2.31825
lhand -21.6533 25.9818
lfingers 7.12502
lthumb 4.74357 55.9087
rfemur -7.31226 -0.839786 20.1324
rtibia 35.089
rfoot -17.8276 -6.32662
rtoes 3.31181
lfemur -16.9741 1.30923 -16.9413
ltibia 41.9683
lfoot -7.7241 -23.2058
ltoes -26.104
227
root -8.11772 17.7323 1.75152 -7.53254 -46.4975 3.36047
lowerback 13.74 2.62938 2.03396
upperback 1.68025 3.77926 0.456313
thorax -5.81657 1.7956 -1.35908
lowerneck -17.082 3.32733 -8.86707
upperneck 41.1753 6.9146 2.48902
head 17.7338 1.52388 3.99224
rclavicle -1.2424e-015 2.38542e-015
rhumerus -39.0571 -15.3008 -73.7122
rradius 30.999
rwrist 7.85605
rhand -14.4633 10.2553
rfingers 7.12502
rthumb 11.6823 -19.399
lclavicle -1.2424e-015 2.38542e-015
lhumerus -35.1415 16.0423 77.2722
lradius 40.788
lwrist -2.40843
lhand -22.0433 25.1291
lfingers 7.12502
lthumb 4.36692 55.0641
rfemur -6.96185 -0.80392 19.9945
rtibia 34.6005
rfoot -17.665 -6.4298
rtoes 3.43512
lfemur -16.8476 1.10514 -16.5342
ltibia 41.477
lfoot -8.9023 -20.0925
ltoes -20.6809
